<svg width="218" height="45" viewBox="0 0 218 45" fill="none" xmlns="http://www.w3.org/2000/svg">
<path d="M70.4223 0.036377H70.0651V27.5723H70.4223V0.036377Z" fill="#676B6A"/>
<path d="M83.6177 7.75425C83.5337 7.53015 83.4916 7.39009 83.4916 7.25003C83.4916 6.88587 83.7578 6.67578 84.0519 6.67578C84.4581 6.67578 84.5981 6.87187 84.6962 7.15199L86.3839 12.2922H86.4119L88.0996 7.15199C88.1977 6.87187 88.3377 6.67578 88.7439 6.67578C89.038 6.67578 89.3042 6.88587 89.3042 7.25003C89.3042 7.39009 89.2621 7.53015 89.1781 7.75425L87.0422 13.7489C86.9161 14.113 86.7901 14.2811 86.3979 14.2811C86.0057 14.2811 85.8797 14.113 85.7536 13.7489L83.6177 7.75425Z" fill="#676B6A"/>
<path d="M90.5234 4.16174C90.9436 4.16174 91.2797 4.49789 91.2797 4.91807C91.2797 5.33825 90.9436 5.6744 90.5234 5.6744C90.1032 5.6744 89.7671 5.33825 89.7671 4.91807C89.7671 4.49789 90.1032 4.16174 90.5234 4.16174ZM91.1397 13.6229C91.1397 14.029 90.9016 14.2811 90.5234 14.2811C90.1452 14.2811 89.9071 14.029 89.9071 13.6229V7.33412C89.9071 6.92794 90.1452 6.67583 90.5234 6.67583C90.9016 6.67583 91.1397 6.92794 91.1397 7.33412V13.6229Z" fill="#676B6A"/>
<path d="M97.3429 13.2587H97.3149C96.9647 13.931 96.3064 14.2811 95.333 14.2811C93.3231 14.2811 92.1606 12.4533 92.1606 10.4785C92.1606 8.51061 93.3231 6.67582 95.333 6.67582C96.3134 6.67582 96.9927 7.22205 97.3149 7.68425H97.3429V4.06368C97.3429 3.6575 97.581 3.4054 97.9592 3.4054C98.3373 3.4054 98.5754 3.6575 98.5754 4.06368V13.6228C98.5754 14.029 98.3373 14.2811 97.9592 14.2811C97.581 14.2811 97.3429 14.029 97.3429 13.6228V13.2587ZM95.4241 7.74028C93.9114 7.74028 93.3862 9.22492 93.3862 10.4785C93.3862 11.739 93.9184 13.2167 95.4241 13.2167C96.9367 13.2167 97.4619 11.732 97.4619 10.4785C97.4689 9.21792 96.9367 7.74028 95.4241 7.74028Z" fill="#676B6A"/>
<path d="M106.119 13.6788C106.119 14.113 105.783 14.2811 105.545 14.2811C105.292 14.2811 104.97 14.113 104.97 13.6788V13.1606H104.942C104.41 13.9169 103.71 14.2811 102.918 14.2811C100.824 14.2811 99.6479 12.4533 99.6479 10.4784C99.6479 8.51058 100.824 6.67578 102.918 6.67578C103.773 6.67578 104.375 7.03994 104.942 7.67021H104.97V7.27804C104.97 6.84385 105.292 6.67578 105.545 6.67578C105.783 6.67578 106.119 6.84385 106.119 7.27804V13.6788ZM102.918 13.2166C104.431 13.2166 104.956 11.732 104.956 10.4784C104.956 9.21789 104.424 7.74024 102.918 7.74024C101.413 7.74024 100.88 9.22489 100.88 10.4784C100.873 11.739 101.406 13.2166 102.918 13.2166Z" fill="#676B6A"/>
<path d="M80.1527 13.936C80.1527 14.1321 80.0686 14.2371 79.9146 14.2371C79.7675 14.2371 79.6765 14.1321 79.6765 13.936V9.46104C79.6765 9.26496 79.7605 9.15991 79.9146 9.15991C80.0616 9.15991 80.1527 9.26496 80.1527 9.46104V13.936Z" fill="#676B6A"/>
<path d="M83.0458 10.9875C83.0458 10.7914 83.1298 10.6863 83.2839 10.6863C83.438 10.6863 83.522 10.7914 83.522 10.9875V13.9358C83.522 14.1318 83.438 14.2369 83.2839 14.2369C83.1298 14.2369 83.0458 14.1318 83.0458 13.9358V13.7187H83.0248C82.8147 14.0548 82.4716 14.2369 82.0654 14.2369C81.0709 14.2369 80.5737 13.4385 80.5737 12.4651C80.5737 11.5897 81.0499 10.6933 82.0514 10.6933C82.4575 10.6933 82.7587 10.8614 83.0248 11.2116H83.0458V10.9875ZM82.0724 13.8447C82.8007 13.8447 83.0528 13.0954 83.0528 12.4651C83.0528 11.8348 82.8077 11.0855 82.0724 11.0855C81.3651 11.0855 81.0849 11.8348 81.0849 12.4651C81.0849 13.0954 81.3371 13.8447 82.0724 13.8447Z" fill="#676B6A"/>
<path d="M93.8662 18.7753C93.8662 17.7108 93.278 17.0595 92.2695 17.0595C91.2751 17.0595 90.6938 17.7178 90.6938 18.7753V22.9421C90.6938 23.3482 90.4557 23.6004 90.0776 23.6004C89.6994 23.6004 89.4613 23.3482 89.4613 22.9421V16.6533C89.4613 16.2472 89.6994 15.9951 90.0776 15.9951C90.4557 15.9951 90.6938 16.2472 90.6938 16.6533V16.8774L90.7219 16.9055C91.016 16.5273 91.4782 15.9951 92.5917 15.9951C93.32 15.9951 94.0763 16.3032 94.6296 17.2556C95.1758 16.4713 95.8341 15.9951 96.9055 15.9951C98.054 15.9951 99.4897 16.7234 99.4897 18.8173V22.9421C99.4897 23.3482 99.2516 23.6004 98.8734 23.6004C98.4952 23.6004 98.2571 23.3482 98.2571 22.9421V18.7753C98.2571 17.7108 97.6689 17.0595 96.6674 17.0595C95.673 17.0595 95.0847 17.7178 95.0847 18.7753V22.9421C95.0847 23.3482 94.8466 23.6004 94.4685 23.6004C94.0903 23.6004 93.8522 23.3482 93.8522 22.9421V18.7753H93.8662Z" fill="#676B6A"/>
<path d="M100.833 16.6465C100.833 16.2403 101.071 15.9882 101.449 15.9882C101.827 15.9882 102.066 16.2403 102.066 16.6465V20.5892C102.066 21.8638 102.626 22.5291 103.781 22.5291C104.944 22.5291 105.497 21.8568 105.497 20.5892V16.6465C105.497 16.2403 105.735 15.9882 106.113 15.9882C106.491 15.9882 106.73 16.2403 106.73 16.6465V20.6312C106.73 22.8092 105.273 23.5935 103.781 23.5935C102.29 23.5935 100.833 22.8092 100.833 20.6312V16.6465Z" fill="#676B6A"/>
<path d="M108.853 20.2671C108.853 21.5416 109.665 22.5291 111.044 22.5291C112.676 22.5291 113.096 21.5206 113.559 21.5206C113.783 21.5206 114.007 21.7167 114.007 22.0669C114.007 22.6691 112.48 23.5935 111.03 23.5935C108.656 23.5935 107.62 21.7657 107.62 19.7909C107.62 17.781 108.881 15.9882 110.96 15.9882C112.984 15.9882 114.161 17.816 114.161 19.6088C114.161 20.043 114.007 20.2671 113.475 20.2671H108.853ZM112.935 19.3427C112.935 18.2782 112.319 17.0527 110.967 17.0527C109.441 16.9967 108.902 18.2152 108.86 19.3427H112.935Z" fill="#676B6A"/>
<path d="M114.44 17.0667C114.356 16.8426 114.314 16.7025 114.314 16.5625C114.314 16.1983 114.58 15.9882 114.874 15.9882C115.28 15.9882 115.42 16.1843 115.518 16.4644L117.206 21.6047H117.234L118.922 16.4644C119.02 16.1843 119.16 15.9882 119.566 15.9882C119.86 15.9882 120.126 16.1983 120.126 16.5625C120.126 16.7025 120.084 16.8426 120 17.0667L117.865 23.0613C117.738 23.4255 117.612 23.5935 117.22 23.5935C116.828 23.5935 116.702 23.4255 116.576 23.0613L114.44 17.0667Z" fill="#676B6A"/>
<path d="M121.516 20.2671C121.516 21.5416 122.328 22.5291 123.707 22.5291C125.339 22.5291 125.759 21.5206 126.222 21.5206C126.446 21.5206 126.67 21.7167 126.67 22.0669C126.67 22.6691 125.143 23.5935 123.693 23.5935C121.319 23.5935 120.283 21.7657 120.283 19.7909C120.283 17.781 121.544 15.9882 123.623 15.9882C125.647 15.9882 126.824 17.816 126.824 19.6088C126.824 20.043 126.67 20.2671 126.138 20.2671H121.516ZM125.598 19.3427C125.598 18.2782 124.982 17.0527 123.63 17.0527C122.104 16.9967 121.565 18.2152 121.523 19.3427H125.598Z" fill="#676B6A"/>
<path d="M80.143 19.1485C80.143 19.3446 80.059 19.4497 79.9049 19.4497C79.7578 19.4497 79.6668 19.3446 79.6668 19.1485V16.2073C79.6668 16.0112 79.7508 15.9061 79.9049 15.9061C80.052 15.9061 80.143 16.0112 80.143 16.2073V16.3753H80.157C80.3321 16.1232 80.6192 15.9061 81.0604 15.9061C81.6767 15.9061 82.307 16.3193 82.307 17.1457V19.1555C82.307 19.3516 82.2229 19.4567 82.0689 19.4567C81.9218 19.4567 81.8378 19.3516 81.8378 19.1555V17.1317C81.8378 16.6485 81.5086 16.3333 80.9904 16.3333C80.5562 16.3333 80.143 16.6485 80.143 17.2367V19.1485Z" fill="#676B6A"/>
<path d="M84.225 19.4497C83.2306 19.4497 82.7333 18.6513 82.7333 17.6779C82.7333 16.8025 83.2095 15.9061 84.225 15.9061C85.2474 15.9061 85.7166 16.8025 85.7166 17.6779C85.7166 18.6583 85.2194 19.4497 84.225 19.4497ZM84.225 19.0575C84.9533 19.0575 85.2124 18.3082 85.2124 17.6779C85.2124 17.0476 84.9603 16.2983 84.225 16.2983C83.4967 16.2983 83.2376 17.0476 83.2376 17.6779C83.2376 18.3082 83.4967 19.0575 84.225 19.0575Z" fill="#676B6A"/>
<path d="M88.3151 16.4383C88.3151 16.5434 88.2731 16.6694 88.077 16.6694C87.8949 16.6694 87.6498 16.2983 87.1806 16.2983C86.8515 16.2983 86.5013 16.4523 86.5013 16.7885C86.5013 16.9425 86.5853 17.1106 86.8234 17.2016L87.5308 17.4888C88 17.6779 88.3991 17.909 88.3991 18.4552C88.3991 19.0715 87.8529 19.4566 87.1246 19.4566C86.3683 19.4566 85.871 19.0224 85.871 18.7983C85.871 18.7283 85.9761 18.5672 86.0951 18.5672C86.3192 18.5672 86.5293 19.0645 87.1456 19.0645C87.5938 19.0645 87.8949 18.7983 87.8949 18.4692C87.8949 18.1611 87.6638 18.042 87.4117 17.937L86.6064 17.6078C86.2562 17.4678 85.9971 17.2577 85.9971 16.8235C85.9971 16.2562 86.5573 15.9131 87.0826 15.9131C87.7689 15.9061 88.3291 16.1932 88.3151 16.4383Z" fill="#676B6A"/>
<path fill-rule="evenodd" clip-rule="evenodd" d="M35.8484 39.4478C35.8484 39.1257 35.7994 38.8175 35.6943 38.5304C35.4702 37.9211 35.064 37.62 34.4898 37.62C33.9085 37.62 33.5024 37.9141 33.2783 38.5164C33.1732 38.7965 33.1172 39.1046 33.1172 39.4548C33.1172 39.945 33.2152 40.3512 33.4183 40.6803C33.6634 41.0795 34.0066 41.2756 34.4618 41.2756C35.064 41.2756 35.4702 40.9745 35.6803 40.3722C35.7924 40.0781 35.8484 39.7699 35.8484 39.4478ZM36.6677 39.4478C36.6677 40.4352 36.3246 41.1705 35.6453 41.6398C35.3162 41.8709 34.931 41.9829 34.4898 41.9829C33.5934 41.9829 32.9491 41.5557 32.564 40.7083C32.3889 40.3232 32.2978 39.903 32.2978 39.4478C32.2978 38.4324 32.655 37.697 33.3623 37.2348C33.6985 37.0107 34.0766 36.9057 34.4898 36.9057C34.917 36.9057 35.2951 37.0247 35.6383 37.2628C35.9674 37.4869 36.2195 37.7951 36.4016 38.1943C36.5767 38.5794 36.6677 38.9926 36.6677 39.4478ZM30.8342 39.4478C30.8412 39.1467 30.7922 38.8525 30.6941 38.5654C30.6031 38.2923 30.456 38.0682 30.267 37.8931C30.0639 37.718 29.8258 37.62 29.5386 37.62C29.2025 37.613 28.9294 37.697 28.7123 37.8791C28.4952 38.0542 28.3481 38.2853 28.2571 38.5584C28.159 38.8455 28.11 39.1397 28.11 39.4338C28.103 39.987 28.2291 40.4352 28.4812 40.7784C28.7263 41.1145 29.0554 41.2896 29.4476 41.2966C29.4686 41.2826 29.4966 41.2826 29.5246 41.2756C30.0779 41.2476 30.456 40.9394 30.6801 40.3652C30.7782 40.0781 30.8342 39.7769 30.8342 39.4478ZM31.6466 39.4058C31.6466 40.4142 31.3104 41.1635 30.6381 41.6327C30.316 41.8638 29.9518 41.9759 29.5386 41.9759C28.9854 41.9759 28.5442 41.7518 28.2081 41.3036H28.1871V43.4956C28.1871 43.8247 28.054 43.9858 27.7879 43.9858C27.6688 43.9858 27.5638 43.9368 27.4868 43.8387C27.4167 43.7477 27.3817 43.6356 27.3817 43.5096V37.3329C27.3817 37.0388 27.5148 36.8917 27.7739 36.8917C28.054 36.8917 28.1941 37.0317 28.1941 37.3119V37.564H28.2151C28.4392 37.1298 28.8523 36.9057 29.4476 36.8917C29.7627 36.8847 30.0569 36.9477 30.344 37.0738C30.8902 37.3189 31.2684 37.7601 31.4855 38.3833C31.5905 38.7125 31.6466 39.0486 31.6466 39.4058ZM26.2822 40.0501C26.2822 40.8134 25.9951 41.3666 25.4279 41.7028C25.1267 41.8849 24.7486 41.9759 24.2934 41.9759C23.453 41.9759 22.8788 41.6538 22.5706 41.0095C22.4306 40.7154 22.3605 40.3932 22.3605 40.0431V37.3189C22.3605 37.0388 22.4936 36.8987 22.7597 36.8987C23.0328 36.8987 23.1659 37.0388 23.1659 37.3189V40.0291C23.1659 40.8554 23.544 41.2616 24.3004 41.2616C25.0777 41.2616 25.4629 40.8484 25.4629 40.0291V37.3189C25.4629 37.0388 25.5959 36.8987 25.862 36.8987C26.1352 36.8987 26.2682 37.0388 26.2682 37.3189V40.0501H26.2822ZM21.8353 37.3259C21.8353 37.55 21.6462 37.704 21.2751 37.8021C21.093 37.8511 20.9739 37.8861 20.9179 37.9211C20.4767 38.1592 20.2596 38.5724 20.2596 39.1607V41.5627C20.2596 41.8428 20.1266 41.9829 19.8674 41.9829C19.5873 41.9829 19.4473 41.8358 19.4473 41.5417V37.3469C19.4473 37.0668 19.5803 36.9267 19.8464 36.9267C20.1195 36.9267 20.2526 37.0668 20.2526 37.3469V37.7671H20.2736C20.3927 37.55 20.5537 37.3609 20.7568 37.1788C20.9599 37.0037 21.163 36.9127 21.3731 36.9057C21.4921 36.9057 21.5972 36.9407 21.6952 37.0247C21.7863 37.1018 21.8353 37.2068 21.8353 37.3259ZM18.6909 38.8876C18.6909 40.0291 18.3618 40.8834 17.6965 41.4437C17.2833 41.8008 16.6741 41.9759 15.8827 41.9759C14.9163 41.9759 14.167 41.5977 13.6487 40.8484C13.2005 40.2041 12.9764 39.4898 12.9694 38.6985C12.9624 37.718 13.2075 36.9057 13.7118 36.2684C13.9569 35.9533 14.265 35.7012 14.6362 35.5191C15.0213 35.33 15.4415 35.232 15.9037 35.225C16.3659 35.218 16.8141 35.288 17.2413 35.4491C17.6405 35.5891 17.9556 35.7922 18.1727 36.0443C18.2357 36.1144 18.2637 36.2054 18.2637 36.3174C18.2637 36.4225 18.2217 36.5065 18.1377 36.5766C18.0607 36.6396 17.9696 36.6746 17.8576 36.6816C17.7385 36.6746 17.6335 36.6326 17.5424 36.5625C17.2553 36.3384 17.0102 36.1844 16.8071 36.1003C16.555 35.9953 16.2679 35.9393 15.9527 35.9393C15.2314 35.9393 14.6922 36.2334 14.321 36.8147C14.0059 37.3119 13.8448 37.8931 13.8378 38.5444C13.8308 39.4898 14.0969 40.2321 14.6292 40.7784C14.9373 41.0865 15.3365 41.2546 15.8197 41.2686C16.1558 41.2826 16.492 41.2056 16.8351 41.0445C17.5354 40.7083 17.8786 40.0851 17.8786 39.1747V38.8876H16.6951C16.464 38.8876 16.3379 38.7685 16.3169 38.5234C16.3379 38.2573 16.45 38.1242 16.66 38.1242H18.1447C18.5089 38.1242 18.6839 38.3273 18.6839 38.7335V38.8876H18.6909Z" fill="#676B6A"/>
<path fill-rule="evenodd" clip-rule="evenodd" d="M48.2791 41.1214C47.3547 41.1214 46.6334 40.3861 46.6334 39.4757C46.6334 38.5723 47.3617 37.837 48.2791 37.837C49.1895 37.837 49.9528 38.5723 49.9528 39.4757C49.9528 40.3861 49.1895 41.1214 48.2791 41.1214ZM48.2651 36.8426C46.8365 36.8426 45.695 37.9631 45.632 39.3637V44.0347C45.632 44.3428 45.8841 44.595 46.1922 44.595C46.4793 44.595 46.7384 44.3849 46.7454 44.0347V41.4926C47.1166 41.7797 47.6838 42.0108 48.2441 42.0248C49.7007 42.0669 50.9123 40.8763 50.9123 39.4547C50.9123 38.0681 49.8408 36.8426 48.2651 36.8426Z" fill="#676B6A"/>
<path fill-rule="evenodd" clip-rule="evenodd" d="M41.0739 40.1139C41.235 40.5971 41.8513 41.0873 42.5236 41.0873C42.9017 41.0873 43.2799 41.0033 43.6441 40.7512C44.2183 40.359 44.6945 41.0733 44.2603 41.4375C43.8121 41.8016 43.1188 42.0327 42.5026 42.0257C41.0529 42.0117 39.9885 40.8352 39.9885 39.4206C39.9885 38.034 41.102 36.8855 42.5096 36.8435C43.567 36.8155 44.3584 37.4527 44.7225 38.097C45.0937 38.7553 45.1917 39.7638 44.2183 39.7708H41.249C40.9689 39.7778 41.0249 39.9738 41.0739 40.1139ZM42.5446 37.7539C41.9423 37.7609 41.3471 38.118 41.116 38.6153C41.0459 38.7693 41.137 38.9024 41.298 38.9024H43.7841C43.9522 38.9024 43.9802 38.7343 43.9032 38.5872C43.6511 38.111 43.1608 37.7539 42.5446 37.7539Z" fill="#676B6A"/>
<path fill-rule="evenodd" clip-rule="evenodd" d="M60.0437 35.8763C60.0437 36.3595 60.4358 36.7587 60.9261 36.7587C61.4093 36.7587 61.8014 36.3665 61.8014 35.8763C61.8014 35.3931 61.4093 34.994 60.9261 34.994C60.4358 35.001 60.0437 35.3931 60.0437 35.8763ZM59.9526 35.8763C59.9526 35.3441 60.3868 34.9099 60.9191 34.9099C61.4513 34.9099 61.8855 35.3441 61.8855 35.8763C61.8855 36.4086 61.4513 36.8428 60.9191 36.8428C60.3868 36.8428 59.9526 36.4086 59.9526 35.8763Z" fill="#676B6A"/>
<path fill-rule="evenodd" clip-rule="evenodd" d="M60.5845 36.3602H60.7176V35.94H60.8647L61.1098 36.3602H61.2708L60.9977 35.926C61.1448 35.912 61.2358 35.7929 61.2358 35.6739C61.2358 35.5548 61.1728 35.4078 60.9277 35.4078H60.5915V36.3602H60.5845ZM60.7106 35.5128H60.8787C60.9837 35.5128 61.0817 35.5408 61.0817 35.6669C61.0817 35.7999 60.9767 35.821 60.8787 35.821H60.7106V35.5128Z" fill="#676B6A"/>
<path fill-rule="evenodd" clip-rule="evenodd" d="M55.1128 40.456V39.2445C55.1128 38.5722 54.5736 38.0329 53.9013 38.0329C53.271 38.0329 52.6898 38.5372 52.6898 39.2445V40.442V40.456C52.6898 40.7711 52.4307 41.0302 52.1155 41.0302C51.8004 41.0302 51.5273 40.7711 51.5413 40.456L51.5483 39.3285C51.5483 37.6618 52.7808 36.8494 53.8943 36.8494C54.6576 36.8494 55.2809 37.1996 55.6731 37.6968C56.1843 37.0665 56.8986 36.8494 57.4589 36.8494C58.8525 36.8494 59.8889 38.0469 59.9379 39.4406C59.987 40.6871 59.4897 42.767 56.8286 43.8105C56.4294 43.9295 56.0513 43.6214 56.0863 43.2432C56.1073 43.0331 56.2123 42.788 56.5485 42.697C58.7404 42.0737 58.9645 40.0568 58.8665 39.3635C58.7544 38.6072 58.3062 38.0469 57.4869 38.0329C56.7796 38.0189 56.2333 38.5722 56.2333 39.2445V40.456C56.2403 40.7781 55.9812 41.0232 55.6731 41.0232C55.3649 41.0162 55.1058 40.7781 55.1128 40.456Z" fill="#676B6A"/>
<path fill-rule="evenodd" clip-rule="evenodd" d="M38.3069 38.328C38.8391 38.328 39.2733 38.7622 39.2733 39.2944C39.2733 39.8267 38.8391 40.2608 38.3069 40.2608C37.7746 40.2608 37.3405 39.8267 37.3405 39.2944C37.3405 38.7622 37.7746 38.328 38.3069 38.328Z" fill="#676B6A"/>
<path d="M45.1129 10.855C44.0905 9.04818 41.8705 7.10834 38.7192 7.10834H38.5161C34.3773 7.22039 31.0158 10.6589 31.0158 14.7837C31.0158 19.0905 34.3002 22.501 38.5021 22.543H38.5861C40.4209 22.543 42.4448 21.8567 43.7403 20.7993C44.2025 20.4071 44.3566 19.8469 44.1535 19.3006C43.8314 18.4253 42.7809 18.1101 41.8775 18.7334C40.9181 19.3987 39.8326 19.7208 38.5441 19.7208C36.4992 19.7208 34.7274 18.2222 34.2582 16.8356C34.1532 16.5344 34.0831 16.2263 34.2162 16.0372C34.3072 15.9112 34.4963 15.8411 34.7694 15.8411H43.6003C44.5527 15.8341 45.225 15.512 45.5961 14.8817C46.2194 13.8102 45.8062 12.0875 45.1129 10.855ZM42.7179 13.0539C42.6339 13.187 42.4938 13.257 42.3117 13.257H34.9165C34.6714 13.257 34.4683 13.159 34.3633 12.9909C34.2582 12.8228 34.2582 12.6057 34.3563 12.3956C35.0566 10.904 36.8073 9.84653 38.6211 9.81852H38.6491C40.3299 9.81852 41.8705 10.7709 42.6689 12.2976C42.8089 12.5707 42.8299 12.8648 42.7179 13.0539ZM50.3232 14.8957C50.3232 17.6409 52.5922 19.8609 55.3934 19.8609C56.5909 19.8609 57.6904 19.4547 58.5588 18.7754C60.2185 17.739 61.5701 19.8049 60.3095 20.8693C58.979 21.9548 56.9201 22.6271 55.0923 22.6061C50.7924 22.557 47.634 19.0765 47.627 14.8887V14.8747V14.8677C47.634 10.6729 50.7924 7.19237 55.0923 7.15036C56.9201 7.12935 58.979 7.80164 60.3095 8.88711C61.5701 9.95157 60.2185 12.0175 58.5588 10.981C57.6904 10.3017 56.5909 9.89555 55.3934 9.89555C52.5922 9.89555 50.3232 12.1155 50.3232 14.8607" fill="#008141"/>
<path d="M29.2937 14.7484C29.4408 18.453 27.9491 24.6437 20.0357 27.7391C18.8382 28.0962 17.7247 27.1718 17.8227 26.0513C17.8788 25.4351 18.1869 24.7067 19.2023 24.4196C25.7292 22.5568 26.3945 16.5692 26.0933 14.5033C25.7572 12.2413 24.4266 10.5886 21.9966 10.5536C20.0077 10.5256 18.467 11.9822 18.2989 13.845L18.306 17.8297V17.8718C18.299 18.7191 17.6827 19.4124 16.8773 19.5455C16.8633 19.5525 16.8493 19.5525 16.8353 19.5525C16.7583 19.5595 16.6812 19.5735 16.6042 19.5735H16.5902H16.5762C16.114 19.5735 15.6868 19.3844 15.3857 19.0763C15.0986 18.7962 14.9165 18.411 14.9095 17.9838C14.9095 17.9558 14.9025 17.9348 14.9025 17.9068V1.68773C14.9165 0.581253 15.7498 0 16.5622 0C17.4866 0 18.2359 0.749326 18.2359 1.67373V8.13754C19.4474 7.3602 20.778 7.05206 21.9125 7.05206C26.0583 7.05206 29.1327 10.6166 29.2937 14.7484ZM12.6755 8.68377C11.3449 7.5983 9.28603 6.92601 7.45824 6.94702C3.15837 6.99604 0.00700304 10.4766 0 14.6644V14.6784C0.00700304 18.8172 3.08134 22.2557 7.29717 22.3887V22.3817C8.03949 22.3747 8.63475 21.7725 8.63475 21.0231C8.63475 20.2808 8.03249 19.6786 7.29717 19.6645C4.71305 19.4334 2.68917 17.2765 2.68917 14.6854V14.6434C2.68917 11.9052 4.95815 9.6782 7.75937 9.6782C8.95689 9.6782 10.0564 10.0914 10.9247 10.7637C12.5845 11.8141 13.9431 9.74824 12.6755 8.68377Z" fill="#90C549"/>
<path fill-rule="evenodd" clip-rule="evenodd" d="M60.9406 5.68602C60.9406 6.42834 61.5428 7.0306 62.2851 7.0306C63.0275 7.0306 63.6297 6.42834 63.6297 5.68602C63.6297 4.94369 63.0275 4.34143 62.2851 4.34143C61.5428 4.34143 60.9406 4.94369 60.9406 5.68602ZM60.8075 5.68602C60.8075 4.87366 61.4658 4.20837 62.2851 4.20837C63.0975 4.20837 63.7628 4.86666 63.7628 5.68602C63.7628 6.50537 63.0975 7.16366 62.2851 7.16366C61.4728 7.15666 60.8075 6.49837 60.8075 5.68602Z" fill="#008141"/>
<path fill-rule="evenodd" clip-rule="evenodd" d="M61.7665 6.41458H61.9625V5.7703H62.1866L62.5578 6.41458H62.8029L62.3897 5.74929C62.6068 5.72128 62.7469 5.5462 62.7469 5.36412C62.7469 5.18204 62.6558 4.95795 62.2777 4.95795H61.7595V6.41458H61.7665ZM61.9625 5.12602H62.2217C62.3757 5.12602 62.5368 5.16103 62.5368 5.36412C62.5368 5.56021 62.3827 5.60223 62.2217 5.60223H61.9625V5.12602Z" fill="#008141"/>
<path d="M182.507 20.7016C182.78 20.7016 183.039 20.6386 183.285 20.5055C183.53 20.3795 183.747 20.2044 183.943 19.9943C184.139 19.7842 184.286 19.5391 184.398 19.245C184.503 18.9579 184.559 18.6497 184.559 18.3346C184.559 18.0195 184.503 17.7113 184.398 17.4242C184.293 17.1371 184.139 16.878 183.943 16.6609C183.747 16.4438 183.53 16.2687 183.285 16.1356C183.039 16.0096 182.78 15.9396 182.507 15.9396H176.632V20.6946H182.507V20.7016ZM187.654 21.9832C188.397 22.5434 188.992 23.2577 189.44 24.1191C189.888 24.9875 190.113 25.9259 190.113 26.9483C190.113 27.8237 189.951 28.6431 189.629 29.3994C189.307 30.1557 188.866 30.828 188.313 31.4023C187.759 31.9835 187.101 32.4317 186.352 32.7609C185.603 33.09 184.804 33.2511 183.971 33.2511H179.671L177.773 29.6025H184.027C184.3 29.6025 184.559 29.5255 184.804 29.3784C185.049 29.2313 185.259 29.0422 185.434 28.8252C185.61 28.6081 185.75 28.356 185.862 28.0758C185.967 27.7957 186.023 27.5156 186.023 27.2355C186.023 26.9343 185.967 26.6402 185.862 26.3531C185.757 26.066 185.603 25.8068 185.406 25.5897C185.21 25.3727 184.993 25.1906 184.748 25.0505C184.503 24.9105 184.244 24.8404 183.971 24.8404H176.632V33.2441H172.542V12.298H182.514C183.355 12.298 184.146 12.466 184.895 12.7952C185.645 13.1243 186.296 13.5725 186.856 14.1398C187.409 14.707 187.851 15.3793 188.173 16.1426C188.495 16.913 188.656 17.7253 188.656 18.5797C188.656 19.217 188.572 19.8192 188.39 20.3865C188.208 20.9537 187.963 21.486 187.654 21.9832Z" fill="#2C376A"/>
<path d="M196.131 12.3267H191.866V33.2588H196.131V12.3267Z" fill="#2C376A"/>
<path d="M217.264 28.4468C216.795 29.2031 216.249 29.8894 215.612 30.5127C214.981 31.1289 214.281 31.6612 213.525 32.1164C212.761 32.5646 211.949 32.9077 211.067 33.1458C210.191 33.3839 209.281 33.503 208.349 33.503C206.907 33.503 205.548 33.2229 204.274 32.6626C202.999 32.1024 201.886 31.339 200.94 30.3726C199.995 29.4062 199.245 28.2717 198.706 26.9621C198.16 25.6596 197.887 24.266 197.887 22.7883C197.887 21.3107 198.16 19.9241 198.706 18.6145C199.252 17.3119 199.995 16.1704 200.94 15.204C201.886 14.2376 202.999 13.4743 204.274 12.914C205.548 12.3538 206.907 12.0737 208.349 12.0737C209.288 12.0737 210.191 12.1927 211.067 12.4308C211.942 12.6689 212.761 13.0121 213.525 13.4603C214.288 13.9085 214.981 14.4407 215.612 15.064C216.242 15.6802 216.795 16.3665 217.264 17.1299L213.847 19.3708C213.301 18.2924 212.551 17.431 211.599 16.7867C210.646 16.1424 209.561 15.8133 208.356 15.8133C207.502 15.8133 206.69 15.9954 205.933 16.3665C205.17 16.7377 204.512 17.2349 203.944 17.8652C203.377 18.4955 202.929 19.2308 202.6 20.0781C202.271 20.9255 202.103 21.8289 202.103 22.7813C202.103 23.7407 202.271 24.6441 202.6 25.4845C202.929 26.3319 203.377 27.0672 203.944 27.6975C204.512 28.3277 205.17 28.8249 205.933 29.1891C206.697 29.5603 207.502 29.7423 208.356 29.7423C209.568 29.7423 210.646 29.4202 211.599 28.7689C212.551 28.1246 213.301 27.2563 213.847 26.1848L217.264 28.4468Z" fill="#2C376A"/>
<path d="M214.806 8.06179L214.967 7.89371C215.226 8.18784 215.598 8.37692 216.011 8.37692C216.557 8.37692 216.893 8.08279 216.893 7.66261C216.893 7.22142 216.606 7.07436 216.256 6.92029L215.717 6.67518C215.409 6.54212 214.995 6.31803 214.995 5.7928C214.995 5.27457 215.437 4.91742 216.032 4.91742C216.459 4.91742 216.809 5.1135 217.026 5.3446L216.879 5.51268C216.669 5.29558 216.389 5.14852 216.032 5.14852C215.563 5.14852 215.247 5.40063 215.247 5.7858C215.247 6.19898 215.605 6.36005 215.864 6.47209L216.403 6.7102C216.802 6.88527 217.152 7.10937 217.152 7.65561C217.152 8.20185 216.704 8.61503 216.011 8.61503C215.486 8.60102 215.086 8.38393 214.806 8.06179Z" fill="#606163"/>
<path d="M210.408 4.97351H212.354V5.1906H210.66V6.54219H212.088V6.75228H210.66V8.32096H212.41V8.53806H210.408V4.97351Z" fill="#606163"/>
<path d="M206.08 4.97351H205.254V8.53106H206.08C207.173 8.53106 207.691 7.81675 207.691 6.73828C207.691 5.65981 207.18 4.97351 206.08 4.97351ZM206.052 8.32797H205.499V5.1836H206.052C207.019 5.1836 207.439 5.81388 207.439 6.73828C207.439 7.66268 207.019 8.32797 206.052 8.32797Z" fill="#606163"/>
<path d="M201.549 4.97351H201.304L200.051 8.53106H200.303L200.723 7.31253H202.131L202.544 8.53106H202.81L201.549 4.97351ZM200.786 7.10944L201.017 6.44415C201.164 6.02397 201.29 5.65281 201.409 5.21161H201.43C201.556 5.6458 201.682 6.01696 201.822 6.44415L202.047 7.10944H200.786Z" fill="#606163"/>
<path d="M196.257 4.97351H195.43V8.53106H196.257C197.349 8.53106 197.874 7.81675 197.874 6.73828C197.874 5.65981 197.356 4.97351 196.257 4.97351ZM196.229 8.32797H195.682V5.1836H196.229C197.195 5.1836 197.615 5.81388 197.615 6.73828C197.615 7.66268 197.195 8.32797 196.229 8.32797Z" fill="#606163"/>
<path d="M190.758 4.97351H192.705V5.1906H191.01V6.54219H192.439V6.75228H191.01V8.32096H192.761V8.53806H190.758V4.97351Z" fill="#606163"/>
<path d="M187.816 4.97351H187.571V8.53106H187.816V4.97351Z" fill="#606163"/>
<path d="M182.404 6.75222C182.404 5.62473 183.02 4.91742 183.923 4.91742C184.336 4.91742 184.659 5.12751 184.848 5.3446L184.701 5.51268C184.504 5.29558 184.245 5.14852 183.923 5.14852C183.146 5.14852 182.663 5.77179 182.663 6.75922C182.663 7.74665 183.139 8.39093 183.902 8.39093C184.273 8.39093 184.546 8.24386 184.799 7.94974L184.946 8.1038C184.673 8.41894 184.35 8.61503 183.888 8.61503C183.013 8.60102 182.404 7.87971 182.404 6.75222Z" fill="#606163"/>
<path d="M178.454 4.91058C177.599 4.91058 176.99 5.61789 176.99 6.74538C176.99 7.87287 177.599 8.60119 178.454 8.60119C179.308 8.60119 179.917 7.87287 179.917 6.74538C179.924 5.61789 179.308 4.91058 178.454 4.91058ZM178.454 8.37709C177.732 8.37709 177.249 7.73281 177.249 6.74538C177.249 5.75795 177.732 5.13468 178.454 5.13468C179.175 5.13468 179.658 5.75795 179.658 6.74538C179.658 7.73281 179.182 8.37709 178.454 8.37709Z" fill="#606163"/>
<path d="M172.241 8.06179L172.402 7.89371C172.661 8.18784 173.032 8.37692 173.445 8.37692C173.985 8.37692 174.328 8.08279 174.328 7.66261C174.328 7.22142 174.041 7.07436 173.691 6.92029L173.151 6.67518C172.843 6.54212 172.43 6.31803 172.43 5.7928C172.43 5.27457 172.871 4.91742 173.466 4.91742C173.894 4.91742 174.244 5.1135 174.461 5.3446L174.314 5.51268C174.104 5.29558 173.824 5.14852 173.466 5.14852C172.997 5.14852 172.682 5.40063 172.682 5.7858C172.682 6.19898 173.039 6.36005 173.298 6.47209L173.838 6.7102C174.237 6.88527 174.587 7.10937 174.587 7.65561C174.587 8.20185 174.139 8.61503 173.445 8.61503C172.92 8.60102 172.521 8.38393 172.241 8.06179Z" fill="#606163"/>
<path d="M216.943 37.628C216.943 37.1728 216.712 36.8576 216.368 36.8576C216.025 36.8576 215.794 37.1728 215.794 37.628C215.794 38.0832 216.025 38.3913 216.368 38.3913C216.712 38.3913 216.943 38.0832 216.943 37.628ZM215.444 37.628C215.444 36.9627 215.878 36.5775 216.368 36.5775C216.859 36.5775 217.293 36.9627 217.293 37.628C217.293 38.2933 216.859 38.6714 216.368 38.6714C215.878 38.6714 215.444 38.2863 215.444 37.628ZM214.134 38.0061V36.8997H213.84V36.6406L214.155 36.6195L214.197 36.0593H214.478V36.6195H215.017V36.8927H214.478V38.0061C214.478 38.2513 214.555 38.3913 214.786 38.3913C214.856 38.3913 214.947 38.3633 215.017 38.3353L215.08 38.5874C214.968 38.6294 214.835 38.6644 214.709 38.6644C214.275 38.6714 214.134 38.4053 214.134 38.0061ZM212.874 36.6195H213.21V38.6224H212.874V36.6195ZM212.811 35.9963C212.811 35.8632 212.916 35.7792 213.042 35.7792C213.175 35.7792 213.273 35.8632 213.273 35.9963C213.273 36.1223 213.168 36.2134 213.042 36.2134C212.916 36.2134 212.811 36.1223 212.811 35.9963ZM210.745 38.3913L210.913 38.1672C211.088 38.3073 211.263 38.4053 211.501 38.4053C211.767 38.4053 211.893 38.2653 211.893 38.0972C211.893 37.8941 211.655 37.8031 211.438 37.719C211.158 37.614 210.843 37.4809 210.843 37.1448C210.843 36.8226 211.102 36.5775 211.536 36.5775C211.788 36.5775 212.006 36.6826 212.16 36.8016L211.999 37.0187C211.858 36.9137 211.718 36.8436 211.543 36.8436C211.291 36.8436 211.172 36.9767 211.172 37.1308C211.172 37.3199 211.389 37.3899 211.613 37.4809C211.9 37.593 212.223 37.705 212.223 38.0902C212.223 38.4123 211.964 38.6854 211.494 38.6854C211.207 38.6714 210.934 38.5524 210.745 38.3913ZM209.274 36.2624L209.099 36.0943L209.681 35.408L209.919 35.6321L209.274 36.2624ZM209.912 37.628C209.912 37.1728 209.681 36.8576 209.337 36.8576C208.994 36.8576 208.763 37.1728 208.763 37.628C208.763 38.0832 208.994 38.3913 209.337 38.3913C209.681 38.3913 209.912 38.0832 209.912 37.628ZM208.406 37.628C208.406 36.9627 208.84 36.5775 209.33 36.5775C209.821 36.5775 210.255 36.9627 210.255 37.628C210.255 38.2933 209.821 38.6714 209.33 38.6714C208.84 38.6714 208.406 38.2863 208.406 37.628ZM207.489 37.593C207.489 37.1518 207.335 36.8576 206.963 36.8576C206.795 36.8576 206.62 36.9487 206.431 37.1308V38.1812C206.613 38.3353 206.788 38.3913 206.921 38.3913C207.243 38.3843 207.489 38.0902 207.489 37.593ZM206.088 36.6195H206.368L206.396 36.8506H206.41C206.592 36.7036 206.816 36.5705 207.047 36.5705C207.566 36.5705 207.839 36.9697 207.839 37.593C207.839 38.2723 207.433 38.6714 206.97 38.6714C206.788 38.6714 206.599 38.5874 206.417 38.4403L206.424 38.7905V39.4698H206.088V36.6195ZM205.031 37.628C205.031 37.1728 204.799 36.8576 204.456 36.8576C204.113 36.8576 203.882 37.1728 203.882 37.628C203.882 38.0832 204.113 38.3913 204.456 38.3913C204.792 38.3913 205.031 38.0832 205.031 37.628ZM203.525 37.628C203.525 36.9627 203.959 36.5775 204.449 36.5775C204.939 36.5775 205.374 36.9627 205.374 37.628C205.374 38.2933 204.939 38.6714 204.449 38.6714C203.959 38.6714 203.525 38.2863 203.525 37.628ZM202.103 36.6195H202.383L202.411 36.9837H202.425C202.565 36.7316 202.769 36.5705 202.993 36.5705C203.084 36.5705 203.14 36.5845 203.203 36.6125L203.14 36.9137C203.07 36.8927 203.028 36.8787 202.944 36.8787C202.776 36.8787 202.572 36.9977 202.439 37.3409V38.6224H202.103V36.6195ZM201.032 37.593C201.032 37.1518 200.878 36.8576 200.507 36.8576C200.338 36.8576 200.163 36.9487 199.974 37.1308V38.1812C200.156 38.3353 200.331 38.3913 200.465 38.3913C200.787 38.3843 201.032 38.0902 201.032 37.593ZM199.631 36.6195H199.911L199.939 36.8506H199.953C200.135 36.7036 200.359 36.5705 200.591 36.5705C201.109 36.5705 201.382 36.9697 201.382 37.593C201.382 38.2723 200.976 38.6714 200.514 38.6714C200.331 38.6714 200.142 38.5874 199.96 38.4403L199.967 38.7905V39.4698H199.631V36.6195ZM196.193 36.6195H196.473L196.501 36.9067H196.515C196.704 36.7176 196.914 36.5705 197.187 36.5705C197.607 36.5705 197.796 36.8436 197.796 37.3549V38.6224H197.46V37.3969C197.46 37.0257 197.348 36.8647 197.082 36.8647C196.879 36.8647 196.739 36.9697 196.536 37.1728V38.6224H196.2V36.6195H196.193ZM195.128 37.628C195.128 37.1728 194.897 36.8576 194.554 36.8576C194.211 36.8576 193.98 37.1728 193.98 37.628C193.98 38.0832 194.211 38.3913 194.554 38.3913C194.897 38.3913 195.128 38.0832 195.128 37.628ZM193.63 37.628C193.63 36.9627 194.064 36.5775 194.554 36.5775C195.044 36.5775 195.478 36.9627 195.478 37.628C195.478 38.2933 195.044 38.6714 194.554 38.6714C194.064 38.6714 193.63 38.2863 193.63 37.628ZM191.655 37.628C191.655 36.9627 192.103 36.5775 192.614 36.5775C192.88 36.5775 193.062 36.6826 193.202 36.8086L193.027 37.0327C192.908 36.9277 192.789 36.8576 192.628 36.8576C192.264 36.8576 191.998 37.1728 191.998 37.628C191.998 38.0832 192.25 38.3913 192.614 38.3913C192.796 38.3913 192.957 38.3003 193.083 38.1882L193.23 38.4123C193.048 38.5734 192.824 38.6644 192.586 38.6644C192.061 38.6714 191.655 38.2863 191.655 37.628ZM188.664 38.3913L188.832 38.1672C189.008 38.3073 189.183 38.4053 189.421 38.4053C189.68 38.4053 189.813 38.2653 189.813 38.0972C189.813 37.8941 189.575 37.8031 189.358 37.719C189.078 37.614 188.762 37.4809 188.762 37.1448C188.762 36.8226 189.022 36.5775 189.456 36.5775C189.708 36.5775 189.925 36.6826 190.079 36.8016L189.918 37.0187C189.778 36.9137 189.638 36.8436 189.463 36.8436C189.211 36.8436 189.092 36.9767 189.092 37.1308C189.092 37.3199 189.309 37.3899 189.533 37.4809C189.82 37.593 190.142 37.705 190.142 38.0902C190.142 38.4123 189.883 38.6854 189.414 38.6854C189.127 38.6714 188.853 38.5524 188.664 38.3913ZM187.733 38.1322V37.579C187.061 37.656 186.837 37.8241 186.837 38.0762C186.837 38.3003 186.991 38.3983 187.187 38.3983C187.376 38.3983 187.537 38.3073 187.733 38.1322ZM186.5 38.1042C186.5 37.67 186.879 37.4529 187.726 37.3549C187.726 37.0958 187.642 36.8506 187.313 36.8506C187.082 36.8506 186.872 36.9627 186.718 37.0677L186.584 36.8366C186.767 36.7176 187.047 36.5775 187.369 36.5775C187.859 36.5775 188.062 36.8997 188.062 37.3969V38.6224H187.782L187.754 38.3843H187.74C187.551 38.5454 187.327 38.6714 187.082 38.6714C186.753 38.6714 186.5 38.4613 186.5 38.1042ZM184.491 38.3913L184.659 38.1672C184.834 38.3073 185.009 38.4053 185.247 38.4053C185.513 38.4053 185.639 38.2653 185.639 38.0972C185.639 37.8941 185.401 37.8031 185.184 37.719C184.904 37.614 184.589 37.4809 184.589 37.1448C184.589 36.8226 184.848 36.5775 185.282 36.5775C185.534 36.5775 185.751 36.6826 185.905 36.8016L185.744 37.0187C185.604 36.9137 185.464 36.8436 185.289 36.8436C185.037 36.8436 184.918 36.9767 184.918 37.1308C184.918 37.3199 185.135 37.3899 185.359 37.4809C185.646 37.593 185.968 37.705 185.968 38.0902C185.968 38.4123 185.709 38.6854 185.24 38.6854C184.953 38.6714 184.68 38.5524 184.491 38.3913ZM183.741 37.4599C183.741 37.0607 183.559 36.8436 183.251 36.8436C182.971 36.8436 182.719 37.0677 182.677 37.4599H183.741ZM182.341 37.628C182.341 36.9767 182.782 36.5775 183.237 36.5775C183.748 36.5775 184.035 36.9417 184.035 37.5159C184.035 37.586 184.028 37.656 184.021 37.705H182.677C182.705 38.1322 182.964 38.4053 183.342 38.4053C183.531 38.4053 183.692 38.3423 183.839 38.2443L183.958 38.4683C183.783 38.5804 183.573 38.6784 183.3 38.6784C182.768 38.6714 182.341 38.2793 182.341 37.628ZM180.919 36.6195H181.199L181.227 36.9837H181.241C181.381 36.7316 181.584 36.5705 181.808 36.5705C181.899 36.5705 181.962 36.5845 182.019 36.6125L181.955 36.9067C181.885 36.8857 181.843 36.8717 181.759 36.8717C181.591 36.8717 181.388 36.9907 181.255 37.3339V38.6154H180.919V36.6195ZM179.855 37.593C179.855 37.1518 179.7 36.8576 179.329 36.8576C179.161 36.8576 178.986 36.9487 178.797 37.1308V38.1812C178.979 38.3353 179.154 38.3913 179.287 38.3913C179.609 38.3843 179.855 38.0902 179.855 37.593ZM178.454 36.6195H178.734L178.762 36.8506H178.776C178.958 36.7036 179.182 36.5705 179.413 36.5705C179.932 36.5705 180.205 36.9697 180.205 37.593C180.205 38.2723 179.799 38.6714 179.336 38.6714C179.154 38.6714 178.965 38.5874 178.783 38.4403L178.79 38.7905V39.4698H178.454V36.6195ZM174.854 36.6195H175.135L175.163 36.9067H175.177C175.352 36.7176 175.562 36.5705 175.8 36.5705C176.108 36.5705 176.269 36.7176 176.353 36.9487C176.563 36.7246 176.766 36.5705 177.011 36.5705C177.425 36.5705 177.621 36.8436 177.621 37.3549V38.6224H177.284V37.3969C177.284 37.0257 177.165 36.8647 176.913 36.8647C176.759 36.8647 176.598 36.9627 176.409 37.1728V38.6224H176.073V37.3969C176.073 37.0257 175.954 36.8647 175.702 36.8647C175.555 36.8647 175.387 36.9627 175.198 37.1728V38.6224H174.861V36.6195H174.854ZM172.536 35.9192H174.091V36.2134H172.88V37.0607H173.902V37.3549H172.88V38.3353H174.133V38.6294H172.536V35.9192Z" fill="#606163"/>
<path d="M167.46 11.9059C166.01 8.11028 162.34 5.4071 158.033 5.4071C152.466 5.4071 147.949 9.92407 147.949 15.4915C147.949 17.2843 148.418 18.972 149.238 20.4286C150.092 14.9522 155.407 10.7434 161.829 10.7434C163.853 10.7434 165.765 11.1636 167.46 11.9059Z" fill="#E4E540"/>
<path d="M149.245 20.4352C150.106 14.9588 155.414 10.75 161.836 10.75C163.853 10.75 165.765 11.1702 167.46 11.9125C167.46 11.9055 167.453 11.8915 167.446 11.8845C165.17 10.1967 162.102 9.16028 158.741 9.16028C154.301 9.16028 150.393 10.9601 148.11 13.6912C148.005 14.2795 147.949 14.8818 147.949 15.505C147.949 17.2908 148.418 18.9715 149.245 20.4352Z" fill="#FAAE27"/>
<path d="M147.835 3.99963C143.794 4.41281 140.237 7.26305 139.123 11.4229C137.681 16.8012 140.874 22.3336 146.252 23.7762C147.989 24.2384 149.733 24.2244 151.358 23.8042C146.295 21.5563 143.598 15.3376 145.258 9.13286C145.783 7.18602 146.68 5.44926 147.835 3.99963Z" fill="#F37636"/>
<path d="M151.36 23.8042C146.297 21.5563 143.601 15.3376 145.26 9.13286C145.785 7.17902 146.682 5.44226 147.837 3.99963C147.823 3.99963 147.816 3.99963 147.802 4.00664C145.582 5.7714 143.79 8.46057 142.921 11.71C141.773 15.9958 142.501 20.2397 144.546 23.153C145.085 23.4051 145.652 23.6152 146.255 23.7762C147.991 24.2384 149.742 24.2244 151.36 23.8042Z" fill="#D25836"/>
<path d="M135.126 20.9054C134.482 24.9181 136.316 29.092 140.042 31.2419C144.867 34.0221 151.037 32.3694 153.817 27.5513C154.713 25.9966 155.148 24.3019 155.169 22.6281C151.688 26.942 144.979 27.9365 139.419 24.7221C137.668 23.7136 136.218 22.397 135.126 20.9054Z" fill="#80C246"/>
<path d="M155.169 22.635C151.689 26.9489 144.98 27.9433 139.419 24.7289C137.668 23.7205 136.226 22.4039 135.126 20.9122C135.126 20.9192 135.119 20.9332 135.119 20.9402C136.247 23.5454 138.383 25.9684 141.296 27.6492C145.141 29.8691 149.427 30.2613 152.774 29.0428C153.159 28.5876 153.509 28.0903 153.818 27.5581C154.714 26.0034 155.148 24.3087 155.169 22.635Z" fill="#00A756"/>
<path d="M148.165 37.5652C151.87 39.2249 156.38 38.5386 159.426 35.4923C163.362 31.5566 163.362 25.1698 159.426 21.2271C158.159 19.9595 156.632 19.0982 155.021 18.65C158.285 23.1249 157.507 29.8618 152.969 34.4068C151.534 35.8354 149.888 36.8929 148.165 37.5652Z" fill="#9C308E"/>
<path d="M155.014 18.65C158.278 23.1249 157.5 29.8618 152.962 34.4068C151.534 35.8354 149.888 36.8929 148.165 37.5652C148.172 37.5722 148.186 37.5722 148.193 37.5792C151.002 37.159 153.894 35.7304 156.275 33.3494C159.412 30.212 160.904 26.1712 160.589 22.6277C160.246 22.1375 159.86 21.6683 159.426 21.2341C158.152 19.9595 156.632 19.1052 155.014 18.65Z" fill="#742C6E"/>
<path d="M167.627 29.2804C170.19 26.129 170.694 21.598 168.537 17.8654C165.757 13.0403 159.588 11.3876 154.763 14.1748C153.208 15.0712 151.982 16.3177 151.128 17.7674C156.296 15.7715 162.606 18.2646 165.813 23.832C166.829 25.5758 167.424 27.4386 167.627 29.2804Z" fill="#04A8DD"/>
<path d="M151.136 17.7672C156.304 15.7713 162.614 18.2644 165.821 23.8318C166.83 25.5826 167.425 27.4454 167.628 29.2872C167.635 29.2802 167.642 29.2732 167.649 29.2592C167.971 26.444 167.341 23.2716 165.653 20.3583C163.433 16.5137 159.918 14.0276 156.416 13.4113C155.856 13.6144 155.303 13.8665 154.771 14.1746C153.216 15.078 151.99 16.3246 151.136 17.7672Z" fill="#007195"/>
</svg>
